<svg width="57" height="57" viewBox="0 0 57 57" fill="none" xmlns="http://www.w3.org/2000/svg">
<path d="M30.071 27.101V27.024C30.055 27.05 30.038 27.076 30.021 27.101H30.071Z" fill="black"/>
<path d="M49.265 4.66699H7.145C5.129 4.66699 3.494 6.26299 3.494 8.22999V50.843C3.494 52.809 5.129 54.405 7.145 54.405H49.265C51.284 54.405 52.919 52.808 52.919 50.843V8.22999C52.919 6.26199 51.283 4.66699 49.265 4.66699ZM18.475 46.304H11.01V23.845H18.475V46.304ZM14.743 20.777H14.693C12.189 20.777 10.569 19.052 10.569 16.897C10.569 14.694 12.239 13.017 14.792 13.017C17.346 13.017 18.917 14.694 18.967 16.897C18.967 19.052 17.345 20.777 14.743 20.777ZM45.394 46.304H37.929V34.286C37.929 31.268 36.849 29.208 34.148 29.208C32.086 29.208 30.858 30.597 30.317 31.939C30.12 32.418 30.072 33.088 30.072 33.76V46.303H22.607C22.607 46.303 22.705 25.949 22.607 23.844H30.072V27.023C31.064 25.493 32.838 23.314 36.801 23.314C41.712 23.314 45.395 26.525 45.395 33.424V46.304H45.394Z" fill="black"/>
</svg>
